<?xml version="1.0" standalone="no"?>
<!DOCTYPE svg PUBLIC "-//W3C//DTD SVG 20010904//EN"
 "http://www.w3.org/TR/2001/REC-SVG-20010904/DTD/svg10.dtd">
<svg version="1.0" xmlns="http://www.w3.org/2000/svg"
 width="700.000000pt" height="700.000000pt" viewBox="0 0 700.000000 700.000000"
 preserveAspectRatio="xMidYMid meet">
<metadata>
Created by potrace 1.14, written by Peter Selinger 2001-2017
</metadata>
<g transform="translate(0.000000,700.000000) scale(0.100000,-0.100000)"
fill="#000000" stroke="none">
<path d="M1355 6925 c-177 -27 -320 -75 -482 -160 -144 -74 -250 -153 -368
-270 -206 -207 -340 -447 -412 -745 l-26 -105 -10 -1975 c-10 -2074 -8 -2231
32 -2411 95 -423 362 -787 736 -1003 147 -84 310 -143 505 -183 78 -15 247
-17 2065 -20 1341 -3 2025 -1 2120 6 77 6 187 22 245 35 572 130 1025 589
1151 1166 39 180 40 290 33 2335 -6 1868 -7 1976 -25 2083 -36 217 -127 437
-259 624 -81 116 -238 273 -355 357 -116 81 -322 182 -452 220 -218 64 -106
61 -2364 60 -1596 -1 -2072 -4 -2134 -14z m2318 -1407 c16 -329 132 -673 326
-964 273 -412 694 -710 1171 -829 115 -29 287 -55 363 -55 30 0 69 -3 86 -6
l31 -6 0 -159 0 -158 -42 -5 c-24 -3 -84 -7 -134 -10 -122 -7 -307 -46 -453
-95 -669 -223 -1177 -798 -1316 -1486 -19 -93 -45 -318 -45 -386 0 -5 -72 -9
-160 -9 -88 0 -160 4 -160 9 0 4 -5 66 -10 136 -40 486 -237 915 -579 1256
-175 174 -351 299 -561 397 -199 93 -471 166 -660 177 -52 3 -114 8 -137 11
l-43 5 0 158 0 159 31 6 c17 3 57 6 88 6 79 0 247 26 360 54 787 200 1373 852
1485 1655 9 61 16 148 16 191 l0 80 168 0 169 0 6 -132z"/>
</g>
</svg>
