<svg width="41" height="41" viewBox="0 0 41 41" fill="none" xmlns="http://www.w3.org/2000/svg">
    <path fill-rule="evenodd" clip-rule="evenodd" d="M15.4958 25.471C15.2614 25.2367 14.9435 25.105 14.612 25.105C14.2806 25.105 13.9627 25.2367 13.7283 25.471L3.48828 35.711V28.791C3.48828 28.4595 3.35659 28.1416 3.12216 27.9071C2.88774 27.6727 2.5698 27.541 2.23828 27.541C1.90676 27.541 1.58882 27.6727 1.3544 27.9071C1.11998 28.1416 0.988281 28.4595 0.988281 28.791V38.7285C0.988281 39.06 1.11998 39.378 1.3544 39.6124C1.58882 39.8468 1.90676 39.9785 2.23828 39.9785H12.1758C12.5073 39.9785 12.8252 39.8468 13.0597 39.6124C13.2941 39.378 13.4258 39.06 13.4258 38.7285C13.4258 38.397 13.2941 38.079 13.0597 37.8446C12.8252 37.6102 12.5073 37.4785 12.1758 37.4785H5.25578L15.4958 27.2385C15.7301 27.0041 15.8618 26.6862 15.8618 26.3548C15.8618 26.0233 15.7301 25.7054 15.4958 25.471ZM26.3558 14.611C26.5902 14.8454 26.9081 14.977 27.2395 14.977C27.571 14.977 27.8889 14.8454 28.1233 14.611L38.3633 4.37102V11.291C38.3633 11.6225 38.495 11.9405 38.7294 12.1749C38.9638 12.4093 39.2818 12.541 39.6133 12.541C39.9448 12.541 40.2627 12.4093 40.4972 12.1749C40.7316 11.9405 40.8633 11.6225 40.8633 11.291V1.35352C40.8633 1.02199 40.7316 0.704053 40.4972 0.469632C40.2627 0.235212 39.9448 0.103516 39.6133 0.103516H29.6758C29.3443 0.103516 29.0263 0.235212 28.7919 0.469632C28.5575 0.704053 28.4258 1.02199 28.4258 1.35352C28.4258 1.68504 28.5575 2.00298 28.7919 2.2374C29.0263 2.47182 29.3443 2.60352 29.6758 2.60352H36.5958L26.3558 12.8435C26.1214 13.0779 25.9898 13.3958 25.9898 13.7273C25.9898 14.0587 26.1214 14.3766 26.3558 14.611Z" fill="currentColor"/>
</svg>
