<svg width="33" height="33" viewBox="0 0 33 33" fill="none" xmlns="http://www.w3.org/2000/svg">
    <path d="M7.10505 16.1122C7.10505 16.1122 15.105 12.829 17.8796 11.6729C18.9432 11.2105 22.5501 9.73066 22.5501 9.73066C22.5501 9.73066 24.2149 9.0833 24.0761 10.6555C24.0298 11.3029 23.6599 13.5688 23.29 16.0197C22.7351 19.4879 22.1339 23.2798 22.1339 23.2798C22.1339 23.2798 22.0414 24.3434 21.2553 24.5284C20.4692 24.7133 19.1744 23.881 18.9432 23.696C18.7582 23.5573 15.475 21.4763 14.2727 20.459C13.949 20.1816 13.579 19.6267 14.3189 18.9792C15.9836 17.4532 17.9721 15.5573 19.1744 14.355C19.7293 13.8 20.2842 12.5053 17.9721 14.0775C14.6889 16.3434 11.4519 18.4706 11.4519 18.4706C11.4519 18.4706 10.712 18.933 9.3247 18.5168C7.93737 18.1007 6.31888 17.5457 6.31888 17.5457C6.31888 17.5457 5.20912 16.8521 7.10505 16.1122Z" fill="#F8EBE2"/>
</svg>