<svg width="17" height="17" viewBox="0 0 17 14" fill="none" xmlns="http://www.w3.org/2000/svg">
    <path d="M1.47117 6.24518C1.47117 6.24518 8.54758 3.31826 11.0018 2.28762C11.9426 1.8754 15.1331 0.556175 15.1331 0.556175C15.1331 0.556175 16.6057 -0.0209347 16.483 1.38068C16.442 1.95784 16.1148 3.97781 15.7876 6.16273C15.2967 9.25459 14.765 12.635 14.765 12.635C14.765 12.635 14.6832 13.5832 13.9878 13.7481C13.2925 13.913 12.1471 13.171 11.9426 13.006C11.779 12.8824 8.8748 11.0272 7.8113 10.1203C7.52496 9.87295 7.19774 9.37829 7.85217 8.80112C9.32475 7.4407 11.0836 5.75051 12.1471 4.67868C12.638 4.18395 13.1288 3.02968 11.0836 4.43129C8.17944 6.45131 5.31615 8.34765 5.31615 8.34765C5.31615 8.34765 4.66167 8.75987 3.43456 8.38884C2.2074 8.01787 0.775753 7.52315 0.775753 7.52315C0.775753 7.52315 -0.205888 6.90479 1.47117 6.24518Z" fill="#F8EBE2"/>
</svg>