<svg width="33" height="33" viewBox="0 0 33 33" fill="none" xmlns="http://www.w3.org/2000/svg">
    <path fill-rule="evenodd" clip-rule="evenodd" d="M26.3372 11.512C26.4798 11.0368 26.3372 10.7041 25.6718 10.7041H23.454C22.8837 10.7041 22.6302 11.0051 22.4877 11.3378C22.4877 11.3378 21.3629 14.0942 19.7629 15.8685C19.2401 16.3913 19.0184 16.5497 18.7332 16.5497C18.5906 16.5497 18.3847 16.3913 18.3847 15.916V11.512C18.3847 10.9417 18.2263 10.7041 17.751 10.7041H14.2659C13.9174 10.7041 13.6956 10.9734 13.6956 11.211C13.6956 11.7497 14.4877 11.8764 14.5827 13.3655V16.6289C14.5827 17.3418 14.456 17.4685 14.1708 17.4685C13.4263 17.4685 11.5886 14.7121 10.5114 11.5437C10.2896 10.9576 10.0837 10.7041 9.51338 10.7041H7.29555C6.66189 10.7041 6.53516 11.0051 6.53516 11.3378C6.53516 11.9239 7.27971 14.8388 10.0362 18.6883C11.8738 21.318 14.456 22.7438 16.8005 22.7438C18.2104 22.7438 18.3847 22.427 18.3847 21.8884V19.8923C18.3847 19.2586 18.5114 19.1319 18.9708 19.1319C19.3035 19.1319 19.858 19.2903 21.1728 20.5576C22.6778 22.0626 22.9312 22.7438 23.7708 22.7438H25.9887C26.6223 22.7438 26.9392 22.427 26.7491 21.8091C26.5431 21.1913 25.8303 20.2883 24.8798 19.2111C24.357 18.5933 23.5807 17.9438 23.359 17.6111C23.0263 17.1834 23.1213 16.9933 23.359 16.6289C23.359 16.6131 26.0679 12.811 26.3372 11.512Z" fill="#F8EBE2"/>
</svg>