<svg width="17" height="17" viewBox="0 0 17 17" fill="none" xmlns="http://www.w3.org/2000/svg">
    <path d="M5.6513 6.22274C5.86138 5.5618 6.22696 4.9609 6.71733 4.47047L9.35932 1.82859C10.1725 1.01543 11.2755 0.558594 12.4255 0.558594C13.5755 0.558594 14.6785 1.01543 15.4917 1.82859C16.3049 2.64176 16.7617 3.74465 16.7617 4.89465C16.7617 6.04464 16.3049 7.14753 15.4917 7.9607L13.5087 9.94355C13.5478 9.31921 13.4856 8.69054 13.3237 8.08354L14.4698 6.93892C15.0122 6.39656 15.3169 5.66095 15.3169 4.89393C15.3169 4.1269 15.0122 3.39129 14.4698 2.84893C13.9275 2.30656 13.1918 2.00186 12.4248 2.00186C11.6577 2.00186 10.9221 2.30656 10.3797 2.84893L7.73915 5.4908C7.38038 5.84952 7.12235 6.29635 6.99099 6.78638C6.85963 7.27641 6.85956 7.79238 6.9908 8.28244C7.12203 8.7725 7.37995 9.21939 7.73862 9.5782C8.0973 9.93702 8.5441 10.1951 9.03413 10.3265L7.91403 11.448C7.28826 11.149 6.74335 10.7043 6.32504 10.1511C5.90673 9.59791 5.62723 8.95246 5.51 8.26892C5.39277 7.58538 5.44123 6.88369 5.6513 6.22274Z" fill="#F8EBE2"/>
    <path d="M4.0147 7.17363L2.03177 9.15649C1.21857 9.96965 0.761719 11.0725 0.761719 12.2225C0.761719 13.3725 1.21857 14.4754 2.03177 15.2886C2.84497 16.1018 3.94791 16.5586 5.09794 16.5586C6.24798 16.5586 7.35092 16.1018 8.16412 15.2886L10.8061 12.6453C11.2965 12.1548 11.6621 11.5539 11.8721 10.893C12.0822 10.2321 12.1307 9.53037 12.0134 8.84682C11.8962 8.16328 11.6167 7.51784 11.1984 6.96466C10.7801 6.41148 10.2352 5.96672 9.60941 5.6677L8.76247 6.51461C8.67649 6.60074 8.60171 6.69737 8.53989 6.80221C9.02338 6.9412 9.46223 7.20395 9.81304 7.56451C10.1639 7.92506 10.4145 8.37092 10.5402 8.85802C10.6659 9.34512 10.6622 9.85658 10.5297 10.3418C10.3971 10.8271 10.1402 11.2694 9.78429 11.6249L7.14375 14.2668C6.60136 14.8092 5.86572 15.1139 5.09867 15.1139C4.33161 15.1139 3.59598 14.8092 3.05359 14.2668C2.5112 13.7244 2.20649 12.9888 2.20649 12.2218C2.20649 11.4548 2.5112 10.7192 3.05359 10.1768L4.1997 9.0322C4.03813 8.42675 3.97572 7.79905 4.0147 7.17363Z" fill="#F8EBE2"/>
</svg>