<svg width="181" height="49" viewBox="0 0 181 49" fill="none" xmlns="http://www.w3.org/2000/svg">
<g clip-path="url(#clip0_4078_14803)">
<path fill-rule="evenodd" clip-rule="evenodd" d="M24.1314 22.6663L27.6722 14.5586H21.3465C18.2035 14.5987 14.5433 14.7191 11.2015 15.8831C3.44351 18.5723 1.57365 23.1078 1.09624 24.9541C0.260769 28.3256 1.89193 31.8979 4.99511 33.4632C7.74023 34.8279 10.8832 34.6673 13.0315 34.3061C15.8562 33.8244 18.1239 32.8611 19.7551 31.4563C19.7613 31.4501 19.7877 31.4273 19.8283 31.3924C20.0481 31.2029 20.6825 30.6562 20.7497 30.4529L21.068 29.2889C18.7207 30.172 16.7315 30.6135 14.9014 30.6937C13.6681 30.7339 11.3606 30.6135 10.0875 29.0883C8.0585 26.7202 9.84879 23.1881 11.4402 21.5023C13.2305 19.6159 16.6121 18.2913 20.3916 17.9301L18.3229 22.6663H24.1314ZM77.5219 24.031C76.5273 23.75 75.4531 23.75 74.4187 23.75H72.4295L70.9972 27.0011H74.1402C73.5434 29.0481 72.4295 30.2522 70.6392 30.6937C68.9682 31.0951 67.4962 30.9345 67.4962 30.9345L73.5036 16.5655H67.4166C67.4166 16.5655 62.4436 28.2454 61.8866 29.7304C60.8124 32.5802 63.3189 34.0251 65.8253 34.1857C66.1039 34.2025 66.338 34.217 66.5393 34.2295C67.7755 34.3061 67.7756 34.3061 69.2467 34.3061C75.0154 34.3061 80.1476 30.3325 80.1874 27.1215C80.2272 25.5562 79.153 24.4725 77.5219 24.031ZM99.3238 27.3222C99.2442 26.5195 98.9259 25.7569 98.3689 25.1548C97.7324 24.4324 96.4593 23.6296 94.0722 23.6296H92.4013C92.1529 23.6296 91.9115 23.6291 91.6766 23.6286C89.0517 23.6227 87.2349 23.6186 85.5186 24.3922C83.0122 25.5161 80.824 27.6433 81.1025 30.6536C81.2219 31.8176 81.8982 32.9013 82.8928 33.5034C83.9272 34.1054 85.2799 34.3864 86.4336 34.3864H88.1841C88.4337 34.3864 88.6749 34.3869 88.9084 34.3875C91.5041 34.3933 93.1557 34.3971 94.9077 33.6238C96.4195 32.9414 97.8915 31.8979 98.6872 30.3727C99.2044 29.4495 99.4431 28.3658 99.3238 27.3222ZM93.0776 29.3692C92.6798 29.9713 92.083 30.4529 91.4465 30.6938C90.4916 31.0951 89.4572 31.1754 88.4229 31.1754H86.7917V30.6135C86.7917 29.6101 86.9508 29.1686 87.3089 28.6066C88.1444 27.4025 89.497 26.961 90.8895 26.8406L90.989 26.8305C91.3478 26.794 91.6788 26.7603 92.0432 26.7603H93.4357C93.4357 26.7603 93.4357 27.7236 93.3959 28.125C93.4755 28.6066 93.3163 29.008 93.0776 29.3692ZM124.07 34.2258C123.513 34.2258 122.995 34.0251 122.478 33.6238C121.961 33.2224 121.762 32.7809 121.762 32.2591C121.762 32.1387 121.802 31.9781 121.842 31.8176C121.961 31.4564 123.393 28.2053 123.393 28.2053L116.829 32.7809C115.238 33.8646 113.885 34.4265 112.771 34.4265C111.737 34.4265 111.06 34.266 110.662 33.8646C110.424 33.6238 110.304 33.3428 110.304 32.9414C110.304 32.6203 110.384 32.2591 110.583 31.8577L112.214 28.2053L104.058 34.2258H98.926L103.461 23.7902H109.509L107.241 28.9277L113.049 25.195C114.442 24.2317 115.874 23.7902 117.704 23.7902H120.449C120.33 24.0905 119.988 24.8853 119.774 25.3841L119.773 25.3866L119.772 25.3875C119.701 25.5537 119.644 25.6866 119.614 25.7569L118.142 29.1284L124.149 25.1548C125.502 24.1915 127.014 23.7099 128.645 23.7099C129.56 23.7099 130.992 23.7902 131.39 23.8303L127.053 34.2258H124.07ZM38.2149 34.2258L42.7901 23.7901H34.1966C33.9502 23.7901 33.7089 23.7896 33.4723 23.7891L33.4713 23.7891C30.8056 23.7832 28.7527 23.7786 27.0355 24.5527C24.529 25.6766 22.3807 27.8039 22.6592 30.8141C22.7387 31.6169 23.1366 32.4196 23.6538 33.0618C24.4893 34.0653 26.2796 34.5068 27.5527 34.5469C29.5021 34.5469 32.0881 33.8244 33.2816 32.2992C33.1225 33.0618 33.5999 33.704 34.1569 33.985C34.7281 34.2731 35.3954 34.2704 36.2738 34.2668H36.2738H36.2739C36.3744 34.2664 36.4776 34.2659 36.5837 34.2659C36.5439 34.2258 38.1353 34.2258 38.2149 34.2258ZM33.5999 30.9747C30.5365 31.938 28.8655 31.3761 28.5473 30.5332C28.2688 29.891 28.5075 29.2889 28.8655 28.7671C29.7806 27.4828 31.1332 26.961 33.5601 26.961H35.3504L33.5999 30.9747ZM50.5483 28.1651L56.1579 23.7901H62.1654L59.8977 29.0481H54.2085L55.0042 27.2419L49.1957 31.9781L48.0419 34.2258H41.9947L46.4108 23.7901H52.4182L50.5483 28.1651ZM151.879 23.7901L147.304 34.2258C147.224 34.2258 145.593 34.2258 145.672 34.2659C145.566 34.2659 145.463 34.2664 145.363 34.2668C144.484 34.2704 143.817 34.2731 143.246 33.985C142.689 33.704 142.211 33.0618 142.37 32.2992C141.177 33.8244 138.591 34.5469 136.641 34.5469C135.368 34.5068 133.578 34.0653 132.743 33.0618C132.225 32.4196 131.827 31.6169 131.748 30.8141C131.469 27.8039 133.618 25.6766 136.124 24.5527C137.841 23.7786 139.894 23.7832 142.56 23.7891C142.797 23.7896 143.039 23.7901 143.285 23.7901H151.879ZM137.636 30.5332C137.954 31.3761 139.625 31.938 142.689 30.9747L144.439 26.961H142.649C140.222 26.961 138.869 27.4828 137.954 28.7671C137.596 29.2889 137.358 29.891 137.636 30.5332Z" fill="#F8EBE2"/>
</g>
<defs>
<clipPath id="clip0_4078_14803">
<rect width="151" height="20" fill="white" transform="translate(0.878906 14.5586)"/>
</clipPath>
</defs>
</svg>
