<svg width="181" height="49" viewBox="0 0 181 49" fill="none" xmlns="http://www.w3.org/2000/svg">
<g clip-path="url(#clip0_4078_14834)">
<path fill-rule="evenodd" clip-rule="evenodd" d="M18.1226 37.5586H0.878906V13.5586H18.1561C21.9806 13.5586 25.067 16.6253 25.067 20.4253V30.6919C25.0335 34.4919 21.9471 37.5586 18.1226 37.5586ZM10.2723 28.2253H14.5329C15.1704 28.2253 15.6736 27.7253 15.6736 27.0919V23.9919C15.6736 23.3586 15.1704 22.8586 14.5329 22.8586H10.2723V28.2253ZM34.3261 13.5586C30.5017 13.5586 27.4152 16.6253 27.4152 20.3919V37.5586H36.8087V34.6919H42.2099V37.5586H51.6034V13.5586H34.3261ZM36.8087 26.1253V23.9586C36.8087 23.3586 37.3119 22.8586 37.9158 22.8586H42.1764V26.1253H36.8087ZM61.6008 22.8586L53.717 37.5586H78.1735V28.2586H70.5581L78.4419 13.5586H54.0189V22.8586H61.6008ZM78.9786 37.5586L86.8624 22.8586H79.2805V13.5586H103.703L95.8197 28.2586H103.435V37.5586H78.9786ZM125.879 37.5586V28.2586H117.324V13.5586H105.851V37.5586H125.879Z" fill="#F8EBE2"/>
</g>
<defs>
<clipPath id="clip0_4078_14834">
<rect width="125" height="24" fill="white" transform="translate(0.878906 13.5586)"/>
</clipPath>
</defs>
</svg>
