<svg width="181" height="49" viewBox="0 0 181 49" fill="none" xmlns="http://www.w3.org/2000/svg">
<g clip-path="url(#clip0_4078_14863)">
<path fill-rule="evenodd" clip-rule="evenodd" d="M23.7758 24.5966C23.7758 19.3495 27.4238 14.5586 35.5735 14.5586C43.6456 14.5586 47.5265 19.3495 47.5265 24.5966C47.5265 29.8438 43.6456 34.5586 35.5735 34.5586C27.9671 34.5586 23.7758 29.8438 23.7758 24.5966ZM36.5825 32.9617C38.3677 32.5814 39.2991 29.0833 39.1439 25.7373C38.911 19.8058 36.5049 16.4597 34.875 16.1556C32.8569 16.916 32.3136 20.4141 32.4688 23.608C32.6241 29.0833 34.6421 32.7335 36.5825 32.9617ZM52.0285 15.0149H60.3335V31.8971H65.9219V34.1024H52.0285V15.0149ZM71.8203 29.1594H78.0296L79.1939 34.1024H88.0422L83.6957 15.0149H72.6741L68.2499 34.1024H70.6561C70.8889 33.418 71.8203 29.1594 71.8203 29.1594ZM75.313 17.5244L77.5639 27.1822H72.2084L74.4593 17.5244H75.313ZM109.231 15.0148H119.71C120.128 15.0148 120.565 15.0039 121.012 14.9929C123.471 14.9319 126.254 14.863 128.092 16.5357C129.334 17.6764 129.8 19.2733 129.8 20.8703C129.722 24.0642 128.325 25.8893 125.997 26.9539L126.307 27.5623L130.654 34.0262H121.728L118.623 27.3342L117.536 27.2581V34.0262H109.231V15.0148ZM117.536 25.8132C118.002 25.8893 119.787 26.0414 119.787 26.0414C119.787 26.0414 121.495 23.8361 121.495 21.0224C121.495 19.8056 121.495 16.6117 117.536 16.6117V25.8132ZM93.398 34.1024H101.703V15.0149H93.398V34.1024ZM11.4348 15.0149C16.3246 15.0149 21.0592 15.4712 21.0592 20.7184C21.0592 27.4864 16.4798 29.0073 12.0557 29.0073C10.9691 29.0073 9.96004 28.9313 9.18388 28.7792V34.1024H0.878906V15.0149H11.4348ZM9.18388 27.0301C9.64958 27.1062 11.4348 27.2583 11.4348 27.2583C11.4348 27.2583 13.1423 25.205 13.1423 21.6309C13.1423 20.2621 13.1423 16.6879 9.2615 16.6879V27.0301H9.18388ZM150.213 20.5663H155.879V28.5511H150.213V34.1024H142.063V28.5511H136.397V20.5663H142.063V15.0149H150.213V20.5663Z" fill="#F8EBE2"/>
</g>
<defs>
<clipPath id="clip0_4078_14863">
<rect width="155" height="20" fill="white" transform="translate(0.878906 14.5586)"/>
</clipPath>
</defs>
</svg>
