<svg width="181" height="49" viewBox="0 0 181 49" fill="none" xmlns="http://www.w3.org/2000/svg">
<path fill-rule="evenodd" clip-rule="evenodd" d="M3.71496 36.6805H6.18347V20.386H10.7217V18.1109H6.18608V17.737C6.18608 13.9 9.48872 13.8337 10.2238 13.8337H10.7243V11.5586H10.2238C6.1183 11.5586 3.71496 14.1042 3.71496 17.737V18.1109H0.878906V20.386H3.71496V36.6805ZM13.026 36.6805H15.4945V25.6814C15.4945 21.9134 18.3305 20.3515 20.6661 20.2163V17.7052C18.4296 17.6362 16.4277 18.7924 15.4267 20.7944H15.3589V18.1135H13.0234V36.6805H13.026ZM30.879 17.668C25.4728 17.668 21.3334 21.8789 21.3334 27.4103C21.3334 32.9443 25.5041 37.1207 30.879 37.1207C36.2513 37.1207 40.4246 32.9443 40.4246 27.4103C40.4246 21.8789 36.2852 17.668 30.879 17.668ZM30.879 19.9432C34.9845 19.9432 37.9535 23.2021 37.9535 27.4129C37.9535 31.6211 34.9845 34.8482 30.879 34.8482C26.7735 34.8482 23.8045 31.6238 23.8045 27.4129C23.8045 23.2021 26.7761 19.9432 30.879 19.9432ZM42.5282 31.2154C42.5282 34.3046 44.2981 37.1234 48.1012 37.1234C51.8392 37.1234 53.9741 34.6122 53.9741 31.2154C53.9741 27.7179 51.4039 26.7686 49.2351 26.0553C47.533 25.5117 45.664 24.8329 45.664 22.6956C45.664 21.1338 46.665 19.9458 48.401 19.9458C49.9363 19.9458 51.0702 21.0675 51.0363 22.7301H53.5049C53.5387 19.8795 51.4691 17.6707 48.4662 17.6707C45.1635 17.6707 43.1929 19.9803 43.1929 22.8998C43.1929 26.4292 46.0628 27.4501 47.9657 28.0944C49.7017 28.7043 51.5029 29.3513 51.5029 31.6238C51.5029 33.2864 50.4029 34.8482 48.2993 34.8482C46.0967 34.8482 44.8273 33.1167 44.9967 31.2154H42.5282ZM58.945 36.6805H61.4135V20.386H65.6519V18.1109H61.4135V11.5586H58.945V18.1109H55.1418V20.386H58.945V36.6805ZM86.3435 28.2959C86.3774 23.5097 83.875 17.6707 76.9648 17.6707C70.7583 17.6707 67.453 22.8309 67.453 27.4129C67.453 32.9815 71.5924 37.1234 76.9648 37.1234C81.1041 37.1234 84.4407 34.6441 85.9082 30.64H83.3381C82.2041 33.1856 79.8347 34.8509 76.9648 34.8509C73.1277 34.8509 70.323 32.0003 70.0232 28.2986H86.3435V28.2959ZM70.0258 26.0208C70.6253 22.4914 73.464 19.9432 76.9674 19.9432C80.1371 19.9432 82.9757 22.2528 83.6743 26.0208H70.0258ZM105.033 31.2473C103.733 33.5887 101.397 34.8456 98.892 34.8456C94.9221 34.8456 91.6168 31.5867 91.6168 27.344C91.6168 23.2366 94.6536 19.9432 98.892 19.9432C99.7262 19.9432 103.198 20.0784 105.033 23.7457H107.804C106.368 20.0784 103.133 17.6681 98.8946 17.6681C92.5213 17.6681 89.1509 22.929 89.1509 27.3785C89.1509 32.2337 92.6543 37.1207 98.8946 37.1207C103.899 37.1207 106.537 33.997 107.77 31.2473H105.033ZM120.285 17.6681C114.879 17.6681 110.739 21.8789 110.739 27.4103C110.739 31.1598 112.654 34.2861 115.56 35.9125C115.21 36.0511 114.848 36.1749 114.475 36.2855C119.367 38.078 124.192 38.2079 128.196 35.1744C133.076 30.1495 133.115 23.3135 128.261 19.5322C128.139 19.4632 128.016 19.4049 127.894 19.3545C128.259 19.9565 128.572 20.5876 128.824 21.2425C130.188 24.7745 129.794 28.9668 126.228 32.597C126.167 32.5362 126.345 32.2409 126.634 31.7596C127.683 30.0154 130.201 25.8274 128.17 21.4944C127.923 20.8527 127.612 20.2349 127.25 19.6489C127.151 19.4898 127.047 19.3307 126.94 19.1742C126.58 19.1801 126.227 19.2703 125.883 19.436C124.327 18.3161 122.403 17.6681 120.285 17.6681ZM126.78 21.4361H127.169L127.305 21.8259C126.932 22.7778 125.404 24.8965 123.533 26.0314C124.211 25.2465 124.901 24.4272 125.504 23.5839C125.995 22.895 126.437 22.1795 126.78 21.4361ZM124.117 21.053C123.034 20.3469 121.73 19.9432 120.285 19.9432C116.179 19.9432 113.21 23.2021 113.21 27.4129C113.21 30.8126 115.146 33.5693 118.052 34.5052C119.748 33.1699 120.992 31.1739 121.651 28.1872C122.053 25.238 122.954 22.6822 124.117 21.053ZM130.722 24.406C130.501 24.2018 130.159 23.865 129.956 23.6078L130.005 24.4484C130.043 24.4649 130.077 24.4803 130.11 24.4946C130.521 24.6774 130.536 24.6844 131.095 24.7189C131.006 24.6453 130.962 24.6116 130.93 24.587C130.878 24.5468 130.858 24.5309 130.722 24.406ZM131.203 26.825C130.865 26.5197 130.42 26.1165 130.203 25.6894L130.05 26.4159C130.477 26.697 130.738 26.8429 131.319 26.9993C131.329 27.0028 131.335 26.9899 131.341 26.9769C131.344 26.9704 131.347 26.9639 131.35 26.9595C131.305 26.9172 131.255 26.8723 131.203 26.825ZM130.315 28.1793C130.096 27.9221 129.911 27.6516 129.763 27.3705L129.544 28.0016C130.12 28.5823 130.394 28.7441 131.095 28.9271C130.8 28.6911 130.54 28.4418 130.315 28.1793ZM126.012 31.3357C126.208 31.1243 126.38 30.9384 126.536 30.8018L126.82 29.6218C126.453 30.1374 125.435 31.1581 124.853 31.7424C124.761 31.8342 124.68 31.9152 124.615 31.9818C124.13 32.4723 123.632 32.9496 123.019 33.4084C124.457 33.0153 125.364 32.0357 126.012 31.3357ZM122.662 31.4939C125.154 30.7249 127.07 28.4232 127.683 27.641L127.823 26.3417C127.128 27.2273 125.858 28.7149 125.092 29.476C124.328 30.2343 123.525 30.9158 122.662 31.4939ZM123.296 28.9562C125.855 27.4952 127.44 25.1272 127.949 24.2124L127.75 23.2074C127.271 24.0718 126.283 25.5223 125.623 26.4C124.961 27.2777 124.195 28.1448 123.296 28.9562Z" fill="#F8EBE2"/>
</svg>
