<svg width="181" height="49" viewBox="0 0 181 49" fill="none" xmlns="http://www.w3.org/2000/svg">
<path fill-rule="evenodd" clip-rule="evenodd" d="M26.2496 10.5586H0.878906V34.4424H2.56215L5.38709 17.3441L19.6532 12.3345L24.5127 26.7029L23.2344 34.4424H26.2496V10.5586ZM82.5629 15.9547H86.71C89.5203 15.9547 91.6183 16.4928 93.0039 17.5691C94.3944 18.6405 95.0872 20.2794 95.0872 22.4711C95.0872 24.6922 94.4237 26.3017 93.0966 27.3095C91.7695 28.3124 89.6423 28.8163 86.71 28.8163H82.5629V15.9547ZM69.0286 28.9484L71.1509 33.8064C76.0017 33.8064 80.8525 33.8102 85.7041 33.8141H85.7067H85.7093H85.7119H85.7145H85.7165H85.7185H85.7205H85.7225C91.7907 33.8189 97.8603 33.8238 103.933 33.8211L106.045 29.193H118.438L120.458 33.8211H127.791L116.633 10.9988H108.934L101.61 25.0982C101.747 24.3155 101.81 23.4887 101.81 22.6228C101.81 20.3332 101.366 18.3274 100.479 16.6004C99.5905 14.8735 98.322 13.5477 96.668 12.6133C95.6044 12.0164 94.4091 11.5859 93.0673 11.3217C91.7256 11.0576 89.935 10.9255 87.6956 10.9255H76.1665V29.0316L67.2282 10.7542H59.5292L52.318 24.6384C51.996 23.9437 51.5033 23.4251 50.8397 23.0875C50.0347 22.6766 48.854 22.4613 47.2829 22.4418C49.3711 22.0895 50.9275 21.434 51.9619 20.4702C53.0011 19.5064 53.5183 18.2393 53.5183 16.6543C53.5183 15.5926 53.2646 14.6436 52.7572 13.8168C52.2546 12.99 51.5325 12.3491 50.6055 11.8941C49.8932 11.5468 49.0638 11.3022 48.1124 11.1505C47.1658 10.9988 45.7753 10.9255 43.9506 10.9255H31.4994V33.8064H37.7933V25.0738H41.6331C43.6237 25.0738 44.8776 25.2646 45.3997 25.6462C45.9217 26.0326 46.273 26.8448 46.4584 28.0825L46.8926 31.1206L46.9134 31.2939C47.0108 32.1105 47.1286 33.099 47.4927 33.8064H54.4062L56.6311 28.9484H69.0286ZM116.35 24.79H108.168L112.461 16.0183L116.35 24.79ZM66.9453 24.5405H58.7632L63.0567 15.7688L66.9453 24.5405ZM37.7933 20.6903V15.3529L41.8331 15.348C43.8481 15.348 45.1801 15.5388 45.8388 15.9204C46.4974 16.3069 46.8292 16.9869 46.8292 17.9556C46.8292 18.9634 46.473 19.6679 45.7607 20.0739C45.0484 20.4849 43.7408 20.6903 41.8331 20.6903H37.7933ZM78.7816 39.5596C78.6255 39.726 78.5426 39.9804 78.5426 40.3033C78.5426 40.5479 78.6011 40.8805 78.7719 41.0762C78.8499 41.1741 79.0305 41.3208 79.3574 41.3208C79.5428 41.3208 79.6989 41.2768 79.8355 41.1545C80.1185 40.9001 80.1282 40.4745 80.1282 40.2837C80.1282 40.0538 80.0941 39.7602 79.9038 39.5499C79.7379 39.3689 79.5476 39.3346 79.3622 39.3346C79.1915 39.3395 78.967 39.3591 78.7816 39.5596ZM80.4551 38.2975C80.177 38.4295 79.9819 38.4736 79.4793 38.5567L79.4695 38.5584C79.3298 38.5826 79.1586 38.6121 79.0061 38.6791C78.8695 38.7426 78.7475 38.8405 78.6597 38.953C78.5426 39.0998 78.445 39.3346 78.4157 39.5743H78.4255C78.6548 39.0704 79.1183 38.9824 79.4501 38.9824C79.6843 38.9824 79.9672 39.0215 80.2161 39.2563C80.4015 39.4276 80.5917 39.7456 80.5917 40.2788C80.5917 40.6653 80.4844 41.0224 80.2893 41.2621C80.099 41.497 79.7965 41.6731 79.3135 41.6731C79.0793 41.6731 78.767 41.6193 78.4938 41.3453C78.1279 40.9735 78.0742 40.4256 78.0742 40.0635C78.0742 39.1781 78.3279 38.772 78.5035 38.5812C78.7963 38.2681 79.1817 38.1947 79.4745 38.1409C79.5728 38.1219 79.6585 38.1056 79.7343 38.0912C80.1062 38.0207 80.2395 37.9955 80.4502 37.9061V38.2975H80.4551ZM7.14845 39.4961C7.22651 39.6282 7.27042 39.8239 7.2753 39.9902V39.9951H5.79697C5.80185 39.8043 5.87016 39.6037 5.98237 39.4619C6.10435 39.3102 6.30926 39.183 6.57273 39.183C6.89474 39.183 7.06551 39.3591 7.14845 39.4961ZM7.25579 41.4726C7.48022 41.3111 7.62171 41.1155 7.69489 40.8806L7.2997 40.7975C7.26554 40.8953 7.207 41.0078 7.13381 41.0861C7.04111 41.1937 6.86546 41.3209 6.57273 41.3209C6.24095 41.3209 5.99701 41.1693 5.86527 40.8464C5.80185 40.6898 5.77257 40.499 5.77745 40.318H7.74369V40.2202C7.74369 39.7848 7.58267 38.8455 6.57273 38.8455C5.7189 38.8455 5.31395 39.5548 5.31395 40.2789C5.31395 40.6605 5.40177 41.0029 5.64084 41.2769C5.87503 41.546 6.17753 41.6732 6.55809 41.6732C6.82155 41.6732 7.04111 41.6145 7.25579 41.4726ZM3.18663 39.2368V38.9041H1.08379V39.2368H1.93273V41.6193H2.33769V39.2368H3.18663ZM10.4368 38.9041L11.0028 39.8434L11.5931 38.9041H11.9981L11.2125 40.1321L12.1396 41.6193H11.6517L10.9735 40.5234L10.266 41.6193H9.86107L10.7637 40.2201L9.94889 38.9041H10.4368ZM14.906 40.0391V38.9041H14.501V41.6193H14.906V40.3718H16.1599V41.6193H16.5648V38.9041H16.1599V40.0391H14.906ZM21.0925 40.2642C21.0925 39.3738 20.6631 39.2026 20.3362 39.2026C20.0142 39.2026 19.58 39.3738 19.58 40.2642C19.58 41.1546 20.0093 41.3258 20.3362 41.3258C20.6631 41.3209 21.0925 41.1546 21.0925 40.2642ZM20.3362 38.8504C21.0388 38.8504 21.556 39.3738 21.556 40.2593C21.556 41.1497 21.0339 41.6683 20.3362 41.6683C19.6337 41.6683 19.1165 41.1448 19.1165 40.2593C19.1165 39.3738 19.6385 38.8504 20.3362 38.8504ZM25.9618 41.6193V38.9041V38.8992H24.3322L24.3273 39.2025C24.2981 40.5675 24.2395 40.8365 24.1614 40.9784C24.059 41.1643 23.8736 41.2573 23.7516 41.2622H23.7077V41.6144H23.7272C23.9126 41.6144 24.3322 41.5753 24.5127 41.0469C24.5957 40.8072 24.6396 40.4451 24.6835 39.2319H25.5568V41.6193H25.9618ZM30.4895 40.2642C30.4895 39.3738 30.0601 39.2026 29.7332 39.2026C29.4112 39.2026 28.977 39.3738 28.977 40.2642C28.977 41.1546 29.4063 41.3258 29.7332 41.3258C30.0601 41.3209 30.4895 41.1546 30.4895 40.2642ZM29.7381 38.8504C30.4407 38.8504 30.9578 39.3738 30.9578 40.2593C30.9578 41.1497 30.4358 41.6683 29.7381 41.6683C29.0355 41.6683 28.5183 41.1448 28.5183 40.2593C28.5135 39.3738 29.0355 38.8504 29.7381 38.8504ZM35.1488 39.2368V38.9041H33.5095V41.6193H33.9145V39.2368H35.1488ZM37.9494 38.9041V40.5332C37.9494 40.6544 37.9471 40.6922 37.9425 40.7678C37.9404 40.802 37.9378 40.844 37.9347 40.905C38.0076 40.7373 38.0843 40.6301 38.1581 40.5269L38.1885 40.4843L39.2033 39.1389V38.9041H39.6082V41.6193H39.2033V40.0146C39.2033 39.9168 39.2082 39.7554 39.2228 39.6282C39.2033 39.6771 39.1643 39.7651 38.9789 40.0049L37.9494 41.3551V41.6144H37.5444V38.8992H37.9494V38.9041ZM42.643 39.6526V38.9041H42.2381V39.589C42.2381 39.8972 42.2381 40.2005 42.4771 40.3767C42.6674 40.5136 42.9407 40.5136 43.1163 40.5136C43.3602 40.5136 43.5115 40.499 43.7652 40.4696V41.6144H44.1702V38.8992H43.7652V40.1467C43.6042 40.1663 43.3651 40.1859 43.1797 40.1859C42.9943 40.1859 42.8138 40.1859 42.7162 40.0685C42.6366 39.9676 42.6398 39.8197 42.6422 39.7056V39.7055C42.6427 39.6868 42.643 39.6691 42.643 39.6526ZM48.6881 39.9902C48.6832 39.8239 48.6393 39.6282 48.5612 39.4961C48.4783 39.3591 48.3075 39.183 47.9904 39.183C47.7269 39.183 47.522 39.3102 47.4 39.4619C47.2878 39.6037 47.2195 39.8043 47.2146 39.9951H48.6881V39.9902ZM49.1077 40.8806C49.0345 41.1155 48.893 41.3111 48.6686 41.4726C48.4539 41.6145 48.2343 41.6732 47.9708 41.6732C47.5903 41.6732 47.2878 41.546 47.0536 41.2769C46.8145 41.0029 46.7267 40.6605 46.7267 40.2789C46.7267 39.5548 47.1317 38.8455 47.9855 38.8455C48.9954 38.8455 49.1565 39.7848 49.1565 40.2202V40.318H47.1902C47.1853 40.499 47.2146 40.6898 47.278 40.8464C47.4098 41.1693 47.6537 41.3209 47.9855 41.3209C48.2782 41.3209 48.4539 41.1937 48.5466 41.0861C48.6198 41.0078 48.6783 40.8953 48.7125 40.7975L49.1077 40.8806ZM53.123 39.4423C53.1913 39.5451 53.2499 39.7016 53.2694 39.8533L53.6597 39.7897C53.6256 39.594 53.5377 39.3445 53.3816 39.1684C53.1913 38.9531 52.9425 38.8601 52.6449 38.8601C52.2107 38.8601 51.9374 39.0461 51.752 39.3004C51.5471 39.5842 51.4691 39.912 51.4691 40.274C51.4691 40.7339 51.6105 41.1693 51.874 41.4139C52.0301 41.5558 52.2741 41.6781 52.6156 41.6781C52.9084 41.6781 53.1572 41.5851 53.3475 41.3894C53.4987 41.228 53.6158 40.9883 53.6549 40.729L53.2743 40.6605C53.2548 40.8121 53.1962 40.9785 53.0986 41.1008C52.9767 41.2573 52.8254 41.3258 52.6254 41.3258C52.357 41.3258 52.196 41.1839 52.1082 41.0519C52.0741 41.0078 51.9326 40.7877 51.9326 40.274C51.9326 40.0538 51.9618 39.7456 52.1082 39.5059C52.2253 39.3151 52.3961 39.2026 52.6303 39.2026C52.8937 39.2026 53.0499 39.3347 53.123 39.4423ZM56.9189 40.0391C57.2751 40.0391 57.4556 39.9657 57.5727 39.4618C57.5773 39.4429 57.5817 39.4234 57.5863 39.4036C57.6159 39.2742 57.6491 39.1288 57.7337 39.0313C57.8508 38.8943 58.0216 38.8894 58.1045 38.8894C58.1444 38.8894 58.1803 38.8934 58.2195 38.8979L58.2195 38.8979L58.2314 38.8992V39.2172C58.2148 39.2139 58.1937 39.2151 58.1742 39.2162C58.165 39.2167 58.1562 39.2172 58.1484 39.2172C58.0899 39.2221 58.0265 39.2319 57.9777 39.2955C57.9319 39.3505 57.9076 39.4745 57.8967 39.53L57.8947 39.5401L57.8557 39.7309C57.7972 40.0293 57.6264 40.1614 57.4459 40.1907V40.2005C57.7045 40.2201 57.8069 40.3962 57.8703 40.5674C57.9184 40.7006 57.9536 40.8197 57.9834 40.9208L57.9835 40.9208C58.0172 41.0352 58.0442 41.1264 58.0753 41.1887C58.1241 41.2866 58.1728 41.3013 58.2753 41.3013C58.3095 41.3013 58.3387 41.3013 58.3729 41.2964V41.6193C58.3143 41.6291 58.2558 41.6291 58.1972 41.6291C57.7734 41.6291 57.7168 41.4473 57.619 41.1339L57.6118 41.1105C57.5852 41.0271 57.5638 40.9581 57.5458 40.9001C57.4909 40.7234 57.468 40.6496 57.4312 40.587C57.3239 40.4011 57.1678 40.3571 56.9482 40.3571H56.553V41.6095H56.1481V38.8943H56.553V40.0293H56.9189V40.0391ZM61.793 39.2026C62.1199 39.2026 62.5492 39.3738 62.5492 40.2642C62.5492 41.1546 62.1199 41.3209 61.793 41.3258C61.4661 41.3258 61.0367 41.1546 61.0367 40.2642C61.0367 39.3738 61.471 39.2026 61.793 39.2026ZM63.0176 40.2593C63.0176 39.3738 62.5004 38.8504 61.7978 38.8504C61.0953 38.8504 60.5781 39.3738 60.5781 40.2593C60.5781 41.1448 61.0953 41.6683 61.7978 41.6683C62.4955 41.6683 63.0176 41.1497 63.0176 40.2593ZM67.3209 39.9902C67.316 39.8239 67.2721 39.6282 67.194 39.4961C67.1111 39.3591 66.9403 39.183 66.6232 39.183C66.3597 39.183 66.1548 39.3102 66.0328 39.4619C65.9206 39.6037 65.8523 39.8043 65.8474 39.9951H67.3209V39.9902ZM67.7405 40.8806C67.6673 41.1155 67.5258 41.3111 67.3014 41.4726C67.0867 41.6145 66.8671 41.6732 66.6037 41.6732C66.2231 41.6732 65.9206 41.546 65.6864 41.2769C65.4473 41.0029 65.3595 40.6605 65.3595 40.2789C65.3595 39.5548 65.7645 38.8455 66.6183 38.8455C67.6283 38.8455 67.7893 39.7848 67.7893 40.2202V40.318H65.823C65.8181 40.499 65.8474 40.6898 65.9109 40.8464C66.0426 41.1693 66.2865 41.3209 66.6183 41.3209C66.911 41.3209 67.0867 41.1937 67.1794 41.0861C67.2526 41.0078 67.3111 40.8953 67.3453 40.7975L67.7405 40.8806ZM74.4637 39.2026C74.7906 39.2026 75.22 39.3738 75.22 40.2642C75.22 41.1546 74.7906 41.3209 74.4637 41.3258C74.1417 41.3258 73.7124 41.1546 73.7124 40.2642C73.7124 39.3738 74.1417 39.2026 74.4637 39.2026ZM75.6883 40.2593C75.6883 39.3738 75.1712 38.8504 74.4686 38.8504C73.766 38.8504 73.244 39.3738 73.2488 40.2593C73.2488 41.1448 73.766 41.6683 74.4686 41.6683C75.1663 41.6683 75.6883 41.1497 75.6883 40.2593ZM84.1486 39.2026C84.4754 39.2026 84.9048 39.3738 84.9048 40.2642C84.9048 41.1546 84.4754 41.3209 84.1486 41.3258C83.8265 41.3258 83.3972 41.1546 83.3972 40.2642C83.3972 39.3738 83.8265 39.2026 84.1486 39.2026ZM85.3732 40.2593C85.3732 39.3738 84.856 38.8504 84.1534 38.8504C83.4508 38.8504 82.9288 39.3738 82.9337 40.2593C82.9337 41.1448 83.4508 41.6683 84.1534 41.6683C84.8511 41.6683 85.3732 41.1497 85.3732 40.2593ZM88.3298 40.548C88.3298 40.6849 88.3493 40.9051 88.5201 41.0959C88.6713 41.2622 88.8665 41.3258 89.0372 41.3258C89.1934 41.3258 89.4129 41.2622 89.5691 41.0078C89.6959 40.7975 89.7349 40.5039 89.7349 40.2593C89.7349 39.8043 89.6227 39.5891 89.5739 39.5157C89.4276 39.2711 89.208 39.2124 89.0421 39.2124C88.8518 39.2124 88.6908 39.2809 88.5542 39.4277C88.3591 39.638 88.3298 39.8582 88.3298 39.9854V40.548ZM87.9248 42.5048V38.9042H88.2956V39.413L88.3005 39.4081C88.4079 39.1537 88.6616 38.8504 89.1055 38.8504C89.4422 38.8504 89.6861 38.9727 89.852 39.1635C90.0862 39.4228 90.1936 39.8533 90.1936 40.2446C90.1936 40.6067 90.1057 41.0029 89.9057 41.2671C89.7642 41.4628 89.5105 41.6732 89.1055 41.6732C88.6762 41.6732 88.4518 41.4432 88.3396 41.1937H88.3249V42.5048H87.9248ZM93.2869 42.3629C93.443 42.2161 93.5162 42.0449 93.5747 41.8786L94.6432 38.909H94.2725L93.5455 40.998L92.8429 38.909H92.3745L93.3259 41.5753L93.2918 41.6633C93.2088 41.9128 93.1405 42.0547 93.0381 42.1379C92.9356 42.2259 92.8331 42.2308 92.7356 42.2308C92.6282 42.2308 92.555 42.221 92.4428 42.1917V42.5048C92.5502 42.5439 92.677 42.5586 92.7844 42.5586C92.9893 42.5586 93.1454 42.495 93.2869 42.3629ZM97.5267 39.3787C97.5121 39.7798 97.4633 40.4403 97.2876 40.905C97.234 41.042 97.151 41.223 97.1169 41.2866H98.361V39.2319H97.5316L97.5267 39.3787ZM98.766 38.909V41.2915H99.0441V42.3531H98.6733V41.6242H96.8729V42.3531H96.5021V41.2915H96.7022C96.7949 41.1594 96.8827 40.998 96.9559 40.8072C97.151 40.3082 97.1754 39.7749 97.1901 39.1536L97.1949 38.909H98.766ZM102.518 39.2026C102.845 39.2026 103.274 39.3738 103.274 40.2642C103.269 41.1546 102.84 41.3209 102.518 41.3258C102.196 41.3258 101.767 41.1546 101.767 40.2642C101.767 39.3738 102.196 39.2026 102.518 39.2026ZM103.738 40.2593C103.738 39.3738 103.221 38.8504 102.518 38.8504C101.815 38.8504 101.298 39.3738 101.298 40.2593C101.298 41.1448 101.815 41.6683 102.518 41.6683C103.216 41.6683 103.738 41.1497 103.738 40.2593ZM106.699 41.2915H107.548C107.743 41.2915 107.89 41.2377 107.973 41.1594C108.056 41.0811 108.1 40.9539 108.1 40.8316C108.1 40.6408 107.997 40.5332 107.934 40.4843C107.802 40.3816 107.612 40.3718 107.509 40.3718H106.699V41.2915ZM106.704 40.0391H107.455C107.582 40.0391 107.748 40.0293 107.865 39.9021C107.934 39.8287 107.973 39.7162 107.973 39.5939C107.973 39.5107 107.953 39.4129 107.856 39.3346C107.743 39.2368 107.616 39.2368 107.495 39.2368H106.704V40.0391ZM107.495 38.9041C107.714 38.9041 107.943 38.9139 108.124 39.0215C108.226 39.0802 108.412 39.227 108.412 39.545C108.412 39.726 108.358 39.8825 108.231 40C108.187 40.0391 108.07 40.1369 107.88 40.1712V40.181C108.075 40.1956 108.275 40.2837 108.382 40.3962C108.436 40.45 108.563 40.5968 108.563 40.861C108.563 41.1105 108.456 41.3258 108.28 41.4627C108.075 41.6242 107.841 41.6291 107.621 41.6291H106.289V38.9139H107.495V38.9041ZM111.7 40.4061C111.851 40.3278 112.095 40.274 112.52 40.274H112.861V40.4061C112.861 40.5969 112.783 40.8464 112.647 41.0176C112.5 41.1937 112.266 41.3209 112.003 41.3209C111.817 41.3209 111.69 41.272 111.617 41.2182C111.466 41.1155 111.422 40.9638 111.422 40.8562C111.422 40.7192 111.476 40.5235 111.7 40.4061ZM112.203 38.8553C111.612 38.8553 111.173 39.0118 111.056 39.594L111.442 39.6576C111.505 39.2173 111.973 39.183 112.198 39.183C112.388 39.183 112.622 39.1928 112.759 39.3787C112.856 39.5059 112.866 39.6869 112.866 39.8288V39.9413H112.515C112.105 39.9413 111.676 39.9462 111.349 40.1713C111.188 40.274 110.983 40.4893 110.983 40.8562C110.983 41.1399 111.11 41.3258 111.227 41.4334C111.359 41.5558 111.573 41.6732 111.92 41.6732C112.559 41.6732 112.793 41.272 112.866 41.1155C112.871 41.2475 112.886 41.4237 112.915 41.6194H113.339C113.286 41.3845 113.271 41.1986 113.271 41.0519V40.0098C113.271 39.6576 113.266 39.2858 112.974 39.0509C112.734 38.8601 112.383 38.8553 112.203 38.8553ZM116.403 38.9041V40.0391H117.657V38.9041H118.057V41.6193H117.657V40.3718H116.403V41.6193H115.999V38.9041H116.403ZM121.234 40.5332V38.9041V38.8992H120.829V41.6144H121.234V41.3551L122.263 40.0049C122.449 39.7651 122.488 39.6771 122.507 39.6282C122.493 39.7554 122.488 39.9168 122.488 40.0146V41.6193H122.893V38.9041H122.488V39.1389L121.473 40.4843L121.442 40.5269C121.369 40.6301 121.292 40.7373 121.219 40.905C121.222 40.844 121.225 40.802 121.227 40.7678C121.231 40.6922 121.234 40.6544 121.234 40.5332ZM127.411 39.9902C127.406 39.8239 127.362 39.6282 127.284 39.4961C127.201 39.3591 127.03 39.183 126.708 39.183C126.444 39.183 126.24 39.3102 126.118 39.4619C126.005 39.6037 125.937 39.8043 125.932 39.9951H127.411V39.9902ZM127.83 40.8806C127.757 41.1155 127.615 41.3111 127.391 41.4726C127.181 41.6145 126.957 41.6732 126.693 41.6732C126.313 41.6732 126.01 41.546 125.776 41.2769C125.537 41.0029 125.449 40.6605 125.449 40.2789C125.449 39.5548 125.854 38.8455 126.708 38.8455C127.718 38.8455 127.879 39.7848 127.879 40.2202V40.318H125.913C125.908 40.499 125.937 40.6898 126.001 40.8464C126.132 41.1693 126.376 41.3209 126.708 41.3209C127.001 41.3209 127.176 41.1937 127.269 41.0861C127.342 41.0078 127.401 40.8953 127.435 40.7975L127.83 40.8806ZM4.51373 34.4424L6.70927 21.1551L9.64154 29.604L8.84139 34.4424H4.51373ZM17.9846 28.9631L17.0771 34.4424H21.2828L22.444 27.4074L17.9846 28.9631ZM10.7979 34.4425L11.32 31.287L15.9111 29.6872L15.1256 34.4425H10.7979Z" fill="#F8EBE2"/>
</svg>
