<svg width="201" height="39" viewBox="0 0 201 39" fill="none" xmlns="http://www.w3.org/2000/svg">
<g clip-path="url(#clip0_4457_1204)">
<path d="M67.3987 12.8936H47.5143C43.4366 12.8936 40.1289 16.2012 40.1289 20.279V30.9426C40.1289 35.0204 43.4366 38.3281 47.5143 38.3281H67.4016C71.4794 38.3281 74.7871 35.0204 74.7871 30.9426V20.2761C74.7871 16.1983 71.4794 12.8906 67.4016 12.8906L67.3987 12.8936ZM69.0805 30.9426C69.0805 31.8721 68.3281 32.6245 67.3987 32.6245H47.5143C46.5849 32.6245 45.8325 31.8721 45.8325 30.9426V20.279C45.8325 19.3496 46.5849 18.5972 47.5143 18.5972H67.3987C68.3281 18.5972 69.0805 19.3496 69.0805 20.279V30.9426Z" fill="white"/>
<path d="M29.397 28.6175V30.9987C29.397 31.8957 28.6711 32.6215 27.7741 32.6215H7.77469C6.8777 32.6215 6.15184 31.8957 6.15184 30.9987V20.22C6.15184 19.323 6.8777 18.5972 7.77469 18.5972H27.7741C28.6711 18.5972 29.397 19.323 29.397 20.22V22.6985H35.1005V20.1993C35.1005 16.1629 31.8283 12.8906 27.7918 12.8906H7.75404C3.71757 12.8906 0.445312 16.1629 0.445312 20.1993V31.0164C0.445312 35.0528 3.71757 38.3251 7.75404 38.3251H27.7948C31.8312 38.3251 35.1035 35.0528 35.1035 31.0164V28.6146H29.3999L29.397 28.6175Z" fill="white"/>
<path d="M193.139 12.8936H173.102C169.065 12.8936 165.793 16.1658 165.793 20.2023V31.0193C165.793 35.0558 169.065 38.3281 173.102 38.3281H193.142C197.179 38.3281 200.451 35.0558 200.451 31.0193V20.1994C200.451 16.1629 197.179 12.8906 193.142 12.8906L193.139 12.8936ZM194.742 30.9987C194.742 31.8957 194.016 32.6215 193.119 32.6215H173.119C172.222 32.6215 171.497 31.8957 171.497 30.9987V20.22C171.497 19.323 172.222 18.5972 173.119 18.5972H193.119C194.016 18.5972 194.742 19.323 194.742 20.22V30.9987Z" fill="white"/>
<path d="M115.488 30.8985C115.488 27.3548 113.004 24.3982 109.682 23.6576C109.549 23.6281 108.926 23.5396 108.575 23.513C105.772 23.3006 94.3501 22.5187 94.3501 22.5187L87.2627 22.02C86.3126 22.02 85.5425 21.2499 85.5425 20.2998C85.5425 19.3497 86.3126 18.5796 87.2627 18.5796V18.5737H114.665V12.873H87.2627C83.1613 12.873 79.8359 16.1984 79.8359 20.2998C79.8359 24.4012 82.9843 27.5348 86.9322 27.7088L86.9381 27.7177L100.974 28.6767L108.053 29.1783L108.121 29.1842C108.203 29.1842 108.283 29.196 108.363 29.2078C108.41 29.2166 108.451 29.2284 108.498 29.2402C108.56 29.255 108.619 29.2727 108.678 29.2963C108.723 29.314 108.764 29.3317 108.805 29.3523C108.861 29.3789 108.914 29.4084 108.965 29.4409C109.003 29.4645 109.041 29.491 109.077 29.5176C109.127 29.553 109.171 29.5914 109.215 29.6327C109.248 29.6622 109.283 29.6946 109.313 29.7271C109.354 29.7713 109.392 29.8215 109.431 29.8687C109.457 29.9041 109.484 29.9395 109.508 29.9749C109.543 30.028 109.572 30.0871 109.599 30.1431C109.617 30.1815 109.637 30.2169 109.655 30.2552C109.682 30.3202 109.699 30.391 109.72 30.4618C109.729 30.4972 109.744 30.5297 109.749 30.5651C109.77 30.6742 109.782 30.7834 109.782 30.8985C109.782 31.8486 109.012 32.6187 108.062 32.6187H80.6208V38.3252H108.543V38.3016C112.42 38.0538 115.488 34.8405 115.488 30.8985Z" fill="white"/>
<path d="M160.732 19.8422C160.617 15.8412 157.344 12.6279 153.317 12.6279C150.059 12.6279 147.301 14.7288 146.297 17.644L146.283 17.6381L144.146 24.2357L141.954 31.0104H141.945C141.874 31.2848 141.736 31.5327 141.55 31.7362C141.547 31.7421 141.541 31.7451 141.538 31.751C141.485 31.81 141.423 31.8631 141.361 31.9133C141.346 31.9251 141.334 31.9339 141.32 31.9457C141.264 31.9871 141.207 32.0254 141.148 32.0608C141.128 32.0726 141.107 32.0844 141.084 32.0962C141.027 32.1257 140.968 32.1493 140.909 32.1729C140.883 32.1847 140.856 32.1936 140.83 32.2054C140.771 32.2261 140.706 32.2408 140.644 32.2526C140.617 32.2585 140.591 32.2674 140.564 32.2703C140.473 32.2851 140.381 32.2939 140.287 32.2939C140.192 32.2939 140.098 32.2851 140.009 32.2703C139.983 32.2644 139.956 32.2585 139.93 32.2526C139.868 32.2379 139.803 32.2231 139.744 32.2054C139.717 32.1965 139.691 32.1847 139.664 32.1729C139.605 32.1493 139.546 32.1257 139.49 32.0962C139.47 32.0844 139.446 32.0726 139.425 32.0608C139.366 32.0254 139.307 31.9871 139.254 31.9457C139.239 31.9339 139.228 31.9251 139.213 31.9133C139.151 31.8631 139.092 31.81 139.036 31.751C139.033 31.7451 139.027 31.7421 139.024 31.7362C138.838 31.5327 138.702 31.2848 138.629 31.0104H138.62L136.427 24.2357L134.291 17.6381L134.276 17.644C133.273 14.7258 130.514 12.6279 127.257 12.6279C123.226 12.6279 119.954 15.8382 119.842 19.8422H119.83V38.2483H125.537V20.0576C125.537 19.1075 126.307 18.3374 127.257 18.3374C127.959 18.3374 128.564 18.7594 128.832 19.3642L128.853 19.4144L131.122 26.3897C131.122 26.3897 132.323 30.4586 133.158 32.6657C133.949 35.3655 136.227 37.4192 139.048 37.8913C139.145 37.909 139.245 37.9237 139.346 37.9355C139.44 37.9473 139.531 37.9591 139.626 37.968C139.841 37.9886 140.06 38.0004 140.284 38.0004C140.505 38.0004 140.724 37.9857 140.942 37.968C141.036 37.9591 141.128 37.9473 141.222 37.9355C141.323 37.9237 141.42 37.906 141.52 37.8913C144.341 37.4192 146.619 35.3626 147.41 32.6657C148.245 30.4586 149.446 26.3897 149.446 26.3897L151.715 19.4144L151.735 19.3642C152.004 18.7594 152.606 18.3374 153.311 18.3374C154.261 18.3374 155.031 19.1075 155.031 20.0576V38.2483H160.738V19.8422H160.726H160.732Z" fill="white"/>
<path d="M87.2595 11.1288V9.6092C82.1844 9.6092 78.0682 5.49306 78.0682 0.417969H76.5487C76.5487 5.49306 72.4325 9.6092 67.3574 9.6092V11.1288C72.4325 11.1288 76.5487 15.2449 76.5487 20.32H78.0682C78.0682 15.2449 82.1844 11.1288 87.2595 11.1288Z" fill="#F1BE9B"/>
</g>
<defs>
<clipPath id="clip0_4457_1204">
<rect width="200" height="37.9098" fill="white" transform="translate(0.445312 0.417969)"/>
</clipPath>
</defs>
</svg>
