<svg width="181" height="49" viewBox="0 0 181 49" fill="none" xmlns="http://www.w3.org/2000/svg">
<g clip-path="url(#clip0_4081_15019)">
<path fill-rule="evenodd" clip-rule="evenodd" d="M35.5735 14.5586C27.4238 14.5586 23.7758 19.3495 23.7758 24.5966C23.7758 29.8438 27.9671 34.5586 35.5735 34.5586C43.6456 34.5586 47.5265 29.8438 47.5265 24.5966C47.5265 19.3495 43.6456 14.5586 35.5735 14.5586ZM39.1439 25.7373C39.2991 29.0833 38.3677 32.5814 36.5825 32.9617C34.6421 32.7335 32.6241 29.0833 32.4688 23.608C32.3136 20.4141 32.8569 16.916 34.875 16.1556C36.5049 16.4597 38.911 19.8058 39.1439 25.7373ZM60.3335 15.0149H52.0285V34.1024H65.9219V31.8971H60.3335V15.0149ZM78.0296 29.1594H71.8203C71.8203 29.1594 70.8889 33.418 70.6561 34.1024H68.2499L72.6741 15.0149H83.6957L88.0422 34.1024H79.1939L78.0296 29.1594ZM77.5639 27.1822L75.313 17.5244H74.4593L72.2084 27.1822H77.5639ZM119.71 15.0148H109.231V34.0262H117.536V27.2581L118.623 27.3342L121.728 34.0262H130.654L126.307 27.5623L125.997 26.9539C128.325 25.8893 129.722 24.0642 129.8 20.8703C129.8 19.2733 129.334 17.6764 128.092 16.5357C126.254 14.863 123.471 14.9319 121.012 14.9929C120.565 15.0039 120.128 15.0148 119.71 15.0148ZM119.787 26.0414C119.787 26.0414 118.002 25.8893 117.536 25.8132V16.6117C121.495 16.6117 121.495 19.8056 121.495 21.0224C121.495 23.8361 119.787 26.0414 119.787 26.0414ZM101.703 34.1024H93.398V15.0149H101.703V34.1024ZM21.0592 20.7184C21.0592 15.4712 16.3246 15.0149 11.4348 15.0149H0.878906V34.1024H9.18388V28.7792C9.96004 28.9313 10.9691 29.0073 12.0557 29.0073C16.4798 29.0073 21.0592 27.4864 21.0592 20.7184ZM11.4348 27.2583C11.4348 27.2583 9.64958 27.1062 9.18388 27.0301H9.2615V16.6879C13.1423 16.6879 13.1423 20.2621 13.1423 21.6309C13.1423 25.205 11.4348 27.2583 11.4348 27.2583Z" fill="#F8EBE2"/>
</g>
<defs>
<clipPath id="clip0_4081_15019">
<rect width="155" height="20" fill="white" transform="translate(0.878906 14.5586)"/>
</clipPath>
</defs>
</svg>
