<svg width="181" height="49" viewBox="0 0 181 49" fill="none" xmlns="http://www.w3.org/2000/svg">
<g clip-path="url(#clip0_4080_14970)">
<path fill-rule="evenodd" clip-rule="evenodd" d="M9.5221 14.8032V26.2022H14.8868V14.8032H9.5221ZM23.5726 37.5585H14.9294L11.9916 29.4042H9.56467L9.5221 37.5585H0.878906V11.5586H19.5278C20.7625 11.5586 21.7418 11.9428 22.4656 12.6686C23.1894 13.3944 23.53 14.3763 23.53 15.6144V25.3484C23.53 26.4157 23.232 27.2695 22.7211 27.9526C22.1676 28.6357 21.4437 29.1053 20.5496 29.2761L23.5726 37.5585ZM33.9616 34.6982H38.2619V25.4338H33.9616V34.6982ZM46.2239 37.5586H30.0019C28.7672 37.5586 27.7879 37.1744 27.0641 36.4486C26.3403 35.7228 25.9571 34.7409 25.9571 33.5028V25.7754C25.9571 24.8361 26.2551 24.025 26.8512 23.4273C27.4473 22.8296 28.2137 22.5307 29.193 22.5307H38.2619V19.6276H29.9594V16.7672H43.0306C43.9673 16.7672 44.7337 17.066 45.3298 17.6637C45.9259 18.2614 46.2239 19.0299 46.2239 20.0118V37.5586ZM56.996 34.6981V19.6275H61.2963V34.6981H56.996ZM52.9937 37.5585H69.3008V11.5586H61.3388V16.7671H52.1847C51.2054 16.7671 50.4391 17.066 49.843 17.6637C49.2469 18.2614 48.9488 19.0725 48.9488 20.0118V33.5027C48.9488 34.7408 49.332 35.7227 50.0559 36.4485C50.7797 37.1743 51.7589 37.5585 52.9937 37.5585ZM107.152 26.0315L113.325 37.5586H105.363L102.17 31.4962L97.7421 37.5586H94.1656L100.595 28.6358L94.2508 16.7672H102.213L105.619 23.1711L110.217 16.7672H113.879L107.152 26.0315ZM84.2026 34.6982H79.9023V25.4338H84.2026V34.6982ZM75.9426 37.5586H92.1646V20.0118C92.1646 19.0299 91.8665 18.2614 91.2704 17.6637C90.6744 17.066 89.908 16.7672 88.9713 16.7672H75.9V19.6276H84.2026V22.5307H75.1336C74.1544 22.5307 73.388 22.8296 72.7919 23.4273C72.1958 24.025 71.8978 24.8361 71.8978 25.7754V33.5028C71.8978 34.7409 72.281 35.7228 73.0048 36.4486C73.7286 37.1744 74.7079 37.5586 75.9426 37.5586Z" fill="#F8EBE2"/>
</g>
<defs>
<clipPath id="clip0_4080_14970">
<rect width="113" height="26" fill="white" transform="translate(0.878906 11.5586)"/>
</clipPath>
</defs>
</svg>
