<svg width="181" height="49" viewBox="0 0 181 49" fill="none" xmlns="http://www.w3.org/2000/svg">
<g clip-path="url(#clip0_5087_312)">
<path fill-rule="evenodd" clip-rule="evenodd" d="M40.8788 9.15639C41.8261 9.5432 42.4928 10.2817 42.8788 11.1256C43.2647 11.9344 43.4402 12.8487 43.4402 13.763C43.4402 15.3102 42.8437 16.8223 41.6156 17.7366C41.0893 18.1234 40.4928 18.4047 39.8262 18.5805C39.1595 18.7212 38.3876 18.8267 37.6858 18.8267H37.4051H36.949C36.8788 18.8267 36.7998 18.8179 36.7209 18.8091C36.6419 18.8003 36.563 18.7915 36.4928 18.7915H36.3876V22.2377H33.2648V8.91024L33.4051 8.87507C33.9665 8.76958 34.5981 8.69925 35.2648 8.62892C35.9314 8.59375 36.7735 8.55859 37.4402 8.55859C37.7911 8.55859 38.177 8.59375 38.563 8.62892C38.984 8.66408 39.4051 8.73441 39.7911 8.80474C40.177 8.91023 40.5279 9.01573 40.8788 9.15639ZM37.0542 16.0487C37.4402 16.0838 37.8963 16.0838 38.2823 16.0135C38.7735 15.9432 40.2823 15.697 40.2823 13.8333C40.2823 11.8837 39.0429 11.6109 38.6605 11.5267L38.6605 11.5267L38.6601 11.5266C38.6357 11.5212 38.6149 11.5166 38.5981 11.5124C38.3174 11.4421 38.0016 11.4069 37.6507 11.4069C37.5003 11.4069 37.3499 11.417 37.2102 11.4264C37.0893 11.4345 36.9765 11.4421 36.8788 11.4421C36.7384 11.4421 36.4226 11.4773 36.4226 11.4773V16.0135C36.4226 16.0135 36.949 16.0487 37.0542 16.0487ZM0.878906 36.0222V8.69922H25.1596V36.0222L13.0192 40.4882L0.878906 36.0222ZM20.2824 17.1388C19.9666 17.0333 19.6157 16.9278 19.2298 16.8223C17.6157 16.4355 16.0719 16.4003 14.8087 16.7168C15.2999 17.0684 15.8263 17.6311 16.2473 18.3695C17.3701 18.264 18.5982 18.4399 19.8262 18.9322C19.9388 18.9805 20.0439 19.0288 20.1417 19.0738L20.142 19.0739L20.142 19.0739L20.1421 19.0739L20.1421 19.074L20.1424 19.0741L20.1424 19.0741C20.2578 19.1271 20.3629 19.1754 20.4578 19.2135L21.1947 17.5607L21.1245 17.5256C20.8789 17.3849 20.5982 17.2443 20.2824 17.1388ZM7.65083 18.3695H7.75609C7.87235 18.3695 8.01268 18.3454 8.17709 18.3171C8.21116 18.3113 8.24627 18.3052 8.28241 18.2992C8.80872 18.2289 9.47539 18.1585 9.51048 18.1585H10.142H10.4578C11.0894 18.1585 11.6859 18.3695 11.9315 18.475C12.3175 18.6157 12.6684 18.8267 12.9491 19.108C13.2298 19.3541 13.4403 19.6706 13.5806 20.0574C13.721 20.4091 13.7912 20.8311 13.7912 21.253C13.7912 21.7453 13.721 22.2025 13.5456 22.6245C13.3701 23.0113 13.1596 23.3981 12.8438 23.6794L12.7385 23.7849L12.7401 23.7928C12.7787 23.9865 12.9575 24.8849 13.5456 25.5783L13.5456 25.5783L13.5456 25.5783L13.5456 25.5782L13.5456 25.5782L13.5457 25.5782L13.5457 25.5782L13.5457 25.5782L13.5457 25.5782L13.5458 25.5781L13.5458 25.5781L13.5458 25.5781C13.7563 25.4375 13.9667 25.2969 14.1771 25.1212C14.7034 24.6992 15.0894 24.1365 15.4052 23.5036C15.721 22.8706 15.8613 22.097 15.8613 21.253C15.8613 20.5146 15.721 19.8113 15.4754 19.2135C15.2298 18.6157 14.8438 18.0882 14.3877 17.7014C13.9315 17.3146 13.3701 16.9981 12.7034 16.7871C12.142 16.6113 11.1596 16.4003 10.3175 16.4003C8.98416 16.4003 7.75609 16.5058 7.22978 16.6113H7.05434C6.77364 16.6113 6.0368 16.6816 5.47539 16.8223L5.37013 16.8574V29.4113H7.40521V25.9299C7.75609 26.0354 8.45784 26.2113 9.40521 26.3519C9.03876 25.5173 8.89371 24.7777 8.84995 24.5545L8.84381 24.5234C8.38873 24.4473 8.00652 24.3531 7.7103 24.28L7.71025 24.28L7.71023 24.28C7.59537 24.2517 7.49345 24.2265 7.40521 24.2069V18.4047C7.4403 18.4047 7.48414 18.3959 7.52799 18.3871L7.528 18.3871L7.52802 18.3871C7.57188 18.3783 7.61574 18.3695 7.65083 18.3695ZM21.2648 28.4618L21.2999 28.4266H21.335V22.9058H17.4403L16.6684 24.5585L19.5105 24.5234V27.2662L19.4403 27.3365C19.4169 27.3483 19.3974 27.36 19.3779 27.3717C19.3389 27.3951 19.2999 27.4186 19.2298 27.442C19.0543 27.5124 18.8087 27.5827 18.5631 27.653C18.3175 27.7233 18.0719 27.7585 17.7912 27.7937C16.1771 28.0047 14.0017 27.6882 12.8087 26.1058C11.721 24.6992 11.5105 22.4486 12.2824 20.9014C12.3877 20.6552 12.528 20.4442 12.7034 20.2333C12.2473 19.4245 11.4052 19.2838 11.0894 19.2486C10.2824 20.3739 9.79117 21.7453 9.79117 23.0816C9.79117 25.8948 11.1947 28.1453 13.5456 29.1651C14.4227 29.5519 15.4754 29.7277 16.5631 29.7277C17.4754 29.7277 18.4227 29.6223 19.3701 29.3409C19.7561 29.2354 20.142 29.0948 20.4578 28.9541C20.514 28.9228 20.569 28.8927 20.6228 28.8633L20.623 28.8631C20.8714 28.7271 21.0918 28.6063 21.2648 28.4618ZM40.2825 32.8574L39.1597 35.3541H42.2474V37.2882C42.1071 37.3585 41.9667 37.4289 41.7913 37.464C41.6066 37.5257 41.395 37.5603 41.2037 37.5917L41.1246 37.6047C40.9141 37.6398 40.6685 37.675 40.4579 37.675C40.3421 37.675 40.2262 37.6857 40.122 37.6952L40.122 37.6952C40.0369 37.7031 39.9596 37.7102 39.8965 37.7102C39.3351 37.7102 38.8088 37.675 38.3176 37.5695C37.8615 37.464 37.4404 37.3234 37.0895 37.0772C36.5632 36.7607 36.1422 36.3036 35.8264 35.7058C35.5106 35.108 35.3702 34.4047 35.3702 33.5607C35.3702 32.8574 35.4755 32.2245 35.686 31.6618C35.8965 31.1344 36.2123 30.6772 36.5983 30.3256C36.8088 30.1497 37.0193 29.9739 37.3 29.8333C37.5457 29.6926 37.8264 29.5871 38.1071 29.5168C38.3878 29.4465 38.7036 29.3761 38.9843 29.341C39.8965 29.2355 40.8439 29.3058 41.7562 29.5519C42.3878 29.7278 42.9492 29.9388 43.5106 30.1849L43.686 30.2552L44.5983 27.5124L44.4579 27.4421C43.7211 27.0904 42.9492 26.8794 42.1071 26.7036C41.265 26.563 40.4229 26.4926 39.6158 26.4926C39.1597 26.4926 38.6685 26.5278 38.1422 26.5981C37.6509 26.6684 37.1246 26.7739 36.6334 26.9498C36.1422 27.1256 35.6509 27.3366 35.1948 27.6179C34.7386 27.8992 34.3176 28.2509 33.9316 28.6728C33.686 28.9541 33.4404 29.2706 33.1948 29.5871L33.1948 29.5871C32.9843 29.9388 32.7737 30.2904 32.5983 30.7124C32.4229 31.0992 32.3176 31.5563 32.2123 32.0134L32.2123 32.0135C32.1071 32.4706 32.072 32.9629 32.072 33.4904C32.072 34.5805 32.2474 35.5651 32.5632 36.4091C32.879 37.253 33.3702 37.9915 34.0369 38.6245C34.4229 38.9761 34.8088 39.2926 35.265 39.5387C35.7211 39.7849 36.1772 39.9959 36.6685 40.1365C37.1597 40.2772 37.6509 40.3827 38.1422 40.453C38.6334 40.5233 39.1597 40.5585 39.6158 40.5585C39.9667 40.5585 40.3176 40.5585 40.7386 40.5234C41.103 40.4929 41.4674 40.4362 41.8545 40.3758L42.0369 40.3475L42.0369 40.3475C42.493 40.242 42.9492 40.1365 43.4053 39.9607L43.469 39.9362C43.9129 39.7653 44.4438 39.561 44.879 39.2926L44.9492 39.2574V32.9629H40.2825V32.8574ZM95.3701 26.8794C95.756 26.9849 96.1069 27.0904 96.4578 27.231C97.4402 27.6179 98.0718 28.3212 98.4578 29.1651C98.8438 29.9387 99.0192 30.8882 99.0192 31.8025C99.0192 33.3497 98.4227 34.8618 97.1946 35.7761C96.6683 36.1629 96.0718 36.4442 95.4052 36.62C94.7385 36.7607 93.9666 36.8662 93.2648 36.8662H92.9841H92.528C92.4578 36.8662 92.3789 36.8574 92.3 36.8486L92.2999 36.8486C92.2209 36.8398 92.142 36.831 92.0718 36.831H91.9666V40.2772H88.8438V26.9849L88.9841 26.9497C89.5455 26.8442 90.1771 26.7739 90.8438 26.7036C91.5104 26.6684 92.3525 26.6332 93.0192 26.6332C93.37 26.6332 93.7559 26.6684 94.1417 26.7036L94.142 26.7036C94.563 26.7387 94.9841 26.8091 95.3701 26.8794ZM92.6332 34.1233C93.0192 34.1585 93.4753 34.1585 93.8613 34.0882L93.8773 34.0848L93.9417 34.0715C94.4987 33.9576 95.8613 33.6791 95.8613 31.908C95.8613 29.9583 94.6219 29.6855 94.2395 29.6013C94.215 29.5959 94.194 29.5913 94.1771 29.5871C93.8964 29.5168 93.5806 29.4816 93.2297 29.4816C93.0793 29.4816 92.9289 29.4917 92.7892 29.5011C92.6683 29.5092 92.5555 29.5168 92.4578 29.5168C92.3174 29.5168 92.0017 29.5519 92.0017 29.5519V34.0882C92.0017 34.0882 92.528 34.1233 92.6332 34.1233ZM51.0193 22.519C52.0719 22.519 53.0192 22.3432 53.8614 22.0267C54.7035 21.675 55.4052 21.2179 56.0017 20.5849C56.5982 19.9871 57.0192 19.2135 57.335 18.3696C57.6508 17.5256 57.7912 16.5762 57.7912 15.5212C57.7912 14.5014 57.6508 13.552 57.335 12.708C57.0192 11.8641 56.5982 11.1256 56.0017 10.4927C55.4052 9.89485 54.7035 9.40255 53.8614 9.0509C53.0192 8.69925 52.0719 8.55859 51.0193 8.55859C50.0017 8.55859 49.0894 8.73441 48.2824 9.01573C47.4754 9.33221 46.7386 9.78935 46.1421 10.3872C45.5456 10.985 45.0894 11.7234 44.7737 12.6025C44.4579 13.4817 44.2824 14.4663 44.2824 15.5564C44.2824 16.6465 44.4579 17.6311 44.7737 18.5102C45.0894 19.3893 45.5456 20.1278 46.1421 20.7256C46.7386 21.3234 47.4403 21.7805 48.2824 22.097C49.0894 22.3432 50.0368 22.519 51.0193 22.519ZM47.5807 15.486C47.5807 14.7476 47.6508 14.1146 47.8263 13.5871C48.0017 13.0597 48.2122 12.6377 48.528 12.2861C48.8438 11.9344 49.1947 11.6883 49.6157 11.5476C50.0368 11.3718 50.528 11.3014 51.0543 11.3014C51.6508 11.3014 52.1771 11.4069 52.5982 11.6179C53.0192 11.8289 53.4052 12.1102 53.6859 12.497C53.9666 12.8487 54.1771 13.3058 54.3175 13.8333C54.4578 14.3608 54.528 14.9234 54.528 15.5212C54.528 16.119 54.4578 16.6817 54.3175 17.2091C54.1771 17.7366 53.9666 18.1586 53.6859 18.5454C53.4052 18.897 53.0543 19.2135 52.5982 19.4245C52.1771 19.6355 51.6508 19.741 51.0543 19.741C50.528 19.741 50.0368 19.6707 49.6157 19.4948C49.1947 19.319 48.8438 19.0729 48.528 18.7564C48.2122 18.4047 48.0017 17.9827 47.8263 17.4553C47.6508 16.8575 47.5807 16.2245 47.5807 15.486ZM62.8788 19.4245H66.8788L65.6507 22.2376H59.756V8.69922H62.8788V19.4245ZM70.0016 22.2376L71.1946 19.4596H76.3876L77.5806 22.2376H80.9139L75.0191 8.69922H72.7384L66.8437 22.2376H70.0016ZM73.7911 13.0948L74.2472 14.4311L75.2999 16.9278H72.2823L73.3349 14.4662L73.7911 13.0948ZM82.3875 8.69922H85.5103V22.2376H82.3875V8.69922ZM91.6859 16.963L93.1947 17.1388L97.0193 22.2377H100.879L96.6684 16.963L96.2122 16.5059C96.2456 16.4933 96.2795 16.4808 96.3136 16.4681C96.567 16.3743 96.8379 16.274 97.0543 16.119C97.4052 15.9081 97.721 15.6267 98.0017 15.3103C98.2824 14.9938 98.4929 14.607 98.6333 14.1498C98.7736 13.6927 98.8789 13.2004 98.8789 12.6377C98.8789 11.8993 98.7386 11.2663 98.4228 10.7388C98.107 10.2114 97.721 9.78939 97.1947 9.47291C96.914 9.29709 96.6333 9.15642 96.3175 9.05093C96.0017 8.94544 95.6508 8.83995 95.3 8.76962C94.9491 8.69929 94.5982 8.66411 94.2122 8.62895C93.8615 8.59379 93.5107 8.59379 93.1599 8.59379H93.1596H93.1594C92.8787 8.59379 92.5279 8.59379 92.1421 8.62895C91.786 8.62895 91.43 8.65888 91.0463 8.69113L90.9491 8.69928C90.528 8.73445 90.1421 8.76961 89.7561 8.80477C89.3701 8.83994 89.0193 8.87511 88.7035 8.94544L88.5631 8.9806V22.2377H91.6859V16.963ZM94.914 14.607C94.6684 14.7476 94.3877 14.8531 94.0368 14.8883C93.686 14.9586 93.3351 14.9586 93.0194 14.9586H93.0193H91.6859V11.6883H91.8614C92.0017 11.6883 92.1421 11.6883 92.2824 11.6531H92.7736C93.3 11.6531 93.7912 11.6531 94.2122 11.7235C94.4929 11.7586 94.7737 11.8641 94.9842 12.0048C95.1947 12.1454 95.3351 12.2861 95.4754 12.5322C95.5807 12.7432 95.6508 12.9894 95.6508 13.2004C95.6508 13.5872 95.5807 13.8685 95.4754 14.1147C95.3 14.2905 95.1245 14.4663 94.914 14.607ZM55.2258 34.5076C55.1916 34.5202 55.1577 34.5328 55.1244 34.5453L55.5805 35.0376L59.791 40.3123H55.9314L52.1068 35.2134L50.5981 35.0376V40.3123H47.4753V27.0201L47.6156 26.9849C47.9314 26.9146 48.2823 26.8794 48.6683 26.8442L48.6696 26.8441C49.0551 26.809 49.4407 26.7739 49.8612 26.7387L49.9582 26.7306L49.9583 26.7306C50.342 26.6983 50.6981 26.6684 51.0542 26.6684C51.4402 26.6332 51.791 26.6332 52.0718 26.6332C52.4226 26.6332 52.7735 26.6332 53.1244 26.6684C53.5103 26.7036 53.8612 26.7387 54.2121 26.8091C54.563 26.8794 54.9139 26.9849 55.2296 27.0904C55.5454 27.1959 55.8261 27.3365 56.1068 27.5124C56.6331 27.8288 57.0191 28.2508 57.3349 28.7783C57.6507 29.3058 57.791 29.9387 57.791 30.6772C57.791 31.2398 57.6858 31.7321 57.5454 32.1893C57.4051 32.6464 57.1946 33.0332 56.9139 33.3497C56.6332 33.6662 56.3174 33.9475 55.9665 34.1585C55.7501 34.3134 55.4791 34.4138 55.2258 34.5076ZM54.3174 31.8728C54.4226 31.6266 54.4928 31.3453 54.4928 30.9585C54.4928 30.7124 54.4226 30.5014 54.3525 30.3255C54.2121 30.0794 54.0718 29.9387 53.8612 29.7981C53.6507 29.6574 53.37 29.5519 53.0893 29.5168C52.6682 29.4464 52.177 29.4464 51.6507 29.4464H51.1595C51.0191 29.4816 50.8788 29.4816 50.7384 29.4816H50.563V32.7519H51.8963H51.8964C52.2122 32.7519 52.563 32.7519 52.9139 32.6816C53.2647 32.6464 53.5454 32.5409 53.791 32.4003C54.0016 32.2596 54.177 32.0838 54.3174 31.8728ZM71.1244 28.4971C70.5279 27.8993 69.8261 27.407 68.984 27.0553C68.1419 26.7037 67.1945 26.563 66.1419 26.563C65.1244 26.563 64.2121 26.7388 63.4051 27.0202C62.5981 27.3366 61.8612 27.7938 61.2647 28.3916C60.6682 28.9894 60.2121 29.7278 59.8963 30.607C59.5805 31.4861 59.4051 32.4707 59.4051 33.5608C59.4051 34.6509 59.5805 35.6355 59.8963 36.5146C60.2121 37.3938 60.6682 38.1322 61.2647 38.73C61.8612 39.3278 62.563 39.785 63.4051 40.1014C64.2121 40.4179 65.1595 40.5586 66.1419 40.5586C67.1945 40.5586 68.1419 40.3828 68.984 40.0663C69.8261 39.7146 70.5279 39.2575 71.1244 38.6245C71.7209 37.9916 72.1419 37.2531 72.4577 36.4091C72.7735 35.5652 72.9138 34.6158 72.9138 33.5608C72.9138 32.541 72.7735 31.5916 72.4577 30.7476C72.1419 29.8685 71.7209 29.0949 71.1244 28.4971ZM69.6156 33.5256C69.6156 34.1234 69.5454 34.6861 69.4051 35.2135C69.2647 35.741 69.0542 36.163 68.7735 36.5498C68.4928 36.9015 68.1419 37.2179 67.6858 37.4289C67.2647 37.6399 66.7384 37.7454 66.1419 37.7454C65.6156 37.7454 65.1244 37.6751 64.7033 37.4993C64.2823 37.3234 63.9314 37.0773 63.6156 36.7608C63.2998 36.4091 63.0893 35.9872 62.9138 35.4597C62.7384 34.9322 62.6682 34.2993 62.6682 33.5608C62.6682 32.8223 62.7384 32.1894 62.9138 31.6619C63.0893 31.1344 63.2998 30.7125 63.6156 30.3608C63.8963 30.0092 64.2823 29.763 64.7033 29.6224C65.1244 29.4465 65.6156 29.3762 66.1419 29.3762C66.7384 29.3762 67.2647 29.4817 67.6858 29.6927C68.1068 29.9037 68.4928 30.185 68.7735 30.5718C69.0542 30.9235 69.2647 31.3806 69.4051 31.9081C69.5454 32.3652 69.6156 32.9278 69.6156 33.5256ZM82.9842 36.3739C83.0895 36.0574 83.1596 35.6706 83.1596 35.2134V26.8091H86.1421V35.3541C86.1421 36.2332 86.0017 37.0068 85.721 37.6398C85.4754 38.3079 85.0895 38.8354 84.5982 39.2574C84.107 39.6794 83.5456 39.9958 82.8789 40.2068C82.2123 40.3827 81.5105 40.4882 80.7737 40.4882C79.8965 40.4882 79.0895 40.4178 78.3877 40.2068C77.6509 39.9958 77.0544 39.6794 76.5631 39.2926C76.0719 38.9057 75.686 38.3783 75.4403 37.7805C75.1947 37.1827 75.0544 36.4794 75.0544 35.7057V26.8091H78.1772V35.2134C78.1772 36.0574 78.3877 36.7255 78.7737 37.1123C79.1596 37.4991 79.8263 37.7101 80.7386 37.7101C81.1245 37.7101 81.4754 37.675 81.7912 37.5695C82.0719 37.4992 82.3175 37.3585 82.5281 37.1475C82.7386 36.9365 82.8789 36.6904 82.9842 36.3739Z" fill="#F8EBE2"/>
</g>
<defs>
<clipPath id="clip0_5087_312">
<rect width="100" height="32" fill="white" transform="translate(0.878906 8.55859)"/>
</clipPath>
</defs>
</svg>
