<svg width="17" height="17" viewBox="0 0 17 17" fill="none" xmlns="http://www.w3.org/2000/svg">
    <path d="M8.76372 0.558594H8.75972C4.34872 0.558594 0.761719 4.14659 0.761719 8.55859C0.761719 10.3086 1.32572 11.9306 2.28472 13.2476L1.28772 16.2196L4.36272 15.2366C5.62772 16.0746 7.13672 16.5586 8.76372 16.5586C13.1747 16.5586 16.7617 12.9696 16.7617 8.55859C16.7617 4.14759 13.1747 0.558594 8.76372 0.558594ZM13.4187 11.8556C13.2257 12.4006 12.4597 12.8526 11.8487 12.9846C11.4307 13.0736 10.8847 13.1446 9.04672 12.3826C6.69572 11.4086 5.18172 9.01959 5.06372 8.86459C4.95072 8.70959 4.11372 7.59959 4.11372 6.45159C4.11372 5.30359 4.69672 4.74459 4.93172 4.50459C5.12472 4.30759 5.44372 4.21759 5.74972 4.21759C5.84872 4.21759 5.93772 4.22259 6.01772 4.22659C6.25272 4.23659 6.37072 4.25059 6.52572 4.62159C6.71872 5.08659 7.18872 6.23459 7.24472 6.35259C7.30172 6.47059 7.35872 6.63059 7.27872 6.78559C7.20372 6.94559 7.13772 7.01659 7.01972 7.15259C6.90172 7.28859 6.78972 7.39259 6.67172 7.53859C6.56372 7.66559 6.44172 7.80159 6.57772 8.03659C6.71372 8.26659 7.18372 9.03359 7.87572 9.64959C8.76872 10.4446 9.49272 10.6986 9.75172 10.8066C9.94472 10.8866 10.1747 10.8676 10.3157 10.7176C10.4947 10.5246 10.7157 10.2046 10.9407 9.88959C11.1007 9.66359 11.3027 9.63559 11.5147 9.71559C11.7307 9.79059 12.8737 10.3556 13.1087 10.4726C13.3437 10.5906 13.4987 10.6466 13.5557 10.7456C13.6117 10.8446 13.6117 11.3096 13.4187 11.8556Z" fill="#F8EBE2"/>
</svg>